<svg width="1500" height="440" viewBox="0 0 1500 440" fill="none" xmlns="http://www.w3.org/2000/svg">
<style>.wordmark{fill:#111318}</style>

<g transform="translate(150,85.0) scale(1.4563)">
<path d="M92 4 C 108 44, 150 70, 150 122 C 150 172, 116 206, 76 206 C 34 206, 2 174, 2 130 C 2 96, 22 74, 42 54 C 44 78, 54 92, 68 98 C 56 66, 62 32, 92 4 Z" fill="#1B2F73"/>
<path d="M90 46 C 100 78, 130 100, 130 142 C 130 178, 106 204, 74 204 C 44 204, 22 180, 22 148 C 22 120, 38 100, 52 86 C 55 108, 64 120, 76 124 C 66 98, 70 72, 90 46 Z" fill="#3157D5"/>
<path d="M84 96 C 90 122, 112 138, 112 166 C 112 190, 94 206, 74 206 C 54 206, 40 190, 40 170 C 40 152, 50 138, 60 130 C 62 146, 70 154, 80 156 C 74 140, 74 116, 84 96 Z" fill="#FFFFFF"/>
</g>
<g class="wordmark" transform="translate(-155.13,-612.01) scale(0.7704)">
<path fill-rule="evenodd" clip-rule="evenodd" d="M1457.87 973.478L1507.28 973.65C1507.56 1009.18 1507.56 1044.71 1507.29 1080.24C1507.32 1115.86 1511.48 1155.93 1493.35 1187.75C1482.32 1207.01 1463.96 1220.97 1442.46 1226.45C1416.55 1233.17 1391.62 1228.33 1368.81 1214.91C1363.78 1211.69 1359.06 1207.98 1354.74 1203.84C1316.55 1167.09 1315.84 1097.91 1353.02 1060.4C1367.58 1045.49 1387.49 1037.02 1408.32 1036.84C1429.14 1036.83 1442.59 1044.09 1456.93 1058.49C1457.2 1045.59 1455.51 980.661 1457.87 973.478Z M1205.21 1037.34C1277.54 1028.92 1315.09 1080.89 1308.74 1148.99L1179.22 1149.1C1184.71 1186.51 1230.44 1193.37 1254.45 1167.7L1297.08 1167.83C1300.21 1167.93 1302.79 1167.35 1304.61 1168.93C1296.47 1198.28 1268.07 1223.13 1238.03 1227.75C1181.29 1235.85 1136.53 1205.26 1129.3 1147.51C1122.56 1093.67 1147.94 1045.04 1205.21 1037.34Z M843.049 973.453C875.518 972.577 910.873 973.271 943.561 973.278L943.511 1023.97L883.636 1023.81C843.337 1023.72 834.881 1020.73 836.967 1066.72C837.17 1071.17 837.063 1076.83 837.114 1081.42L933.044 1081.59L933.099 1132.08L891.25 1132.25L837.074 1132.05L837.22 1224.2L783.6 1224.23L783.515 1096.31C783.469 1045.9 774.341 980.275 843.049 973.453Z M1705.49 973.365L1756.05 973.342L1756.08 1224.17L1705.56 1224.32L1705.49 973.365Z M1782.9 973.372L1833.15 973.473L1833.32 1224.27L1782.84 1224.28L1782.9 973.372Z M1106.49 1037.33C1110.85 1036.96 1117.58 1036.93 1122.12 1036.79L1122.28 1082.39C1106.76 1083.45 1095.5 1087.84 1092.82 1105.19C1090.55 1119.92 1091.33 1135.62 1091.3 1150.56L1091.24 1224.39C1081.8 1224.7 1070.81 1224.37 1061.25 1224.32L1040.95 1224.21L1041.03 1147.32C1041.01 1136.5 1041.11 1125.29 1040.99 1114.51C1040.51 1070.95 1062.41 1042.71 1106.49 1037.33Z M1592.7 1037.33C1597.01 1036.94 1603.73 1037.06 1608.23 1037.01L1608.08 1081.56C1590.95 1083.8 1581.33 1088.59 1578.88 1107.14C1577.06 1120.85 1577.83 1135.63 1577.85 1149.46L1578.06 1224.16L1542.75 1224.21L1527.37 1224.16L1527.34 1147.57C1527.37 1093.23 1525.67 1046.5 1592.7 1037.33Z M1628.49 1045.79L1679.09 1045.85L1679.16 1224.3L1628.63 1224.5C1628.25 1164.93 1628.21 1105.36 1628.49 1045.79Z M966.307 1045.83L1016.84 1045.84C1017.53 1104.92 1016.94 1165.12 1016.94 1224.28L966.271 1224.16L966.307 1045.83Z M1646.19 966.943C1663.82 963.219 1681.13 974.533 1684.79 992.18C1688.45 1009.83 1677.07 1027.09 1659.41 1030.69C1641.84 1034.27 1624.68 1022.96 1621.04 1005.4C1617.4 987.846 1628.64 970.648 1646.19 966.943Z M984.375 967.199C1001.87 963.281 1019.23 974.321 1023.09 991.831C1026.96 1009.34 1015.87 1026.66 998.345 1030.47C980.897 1034.27 963.667 1023.24 959.817 1005.8C955.968 988.365 966.951 971.101 984.375 967.199Z M1408.85 1085.36C1453.63 1082.44 1465.48 1124.97 1449.17 1160.59C1444.6 1170.57 1432.82 1176.36 1422.51 1179.2C1398.08 1180.34 1380.69 1172.17 1375 1147C1368.72 1119.18 1377.96 1090.24 1408.85 1085.36Z M1214.27 1083.36C1237.76 1082.96 1249.91 1091.39 1256.81 1113.36L1225.25 1113.28L1179.38 1113.21C1185.73 1092.98 1192.61 1085.98 1214.27 1083.36Z" fill="#0B1220"/>
</g>
</svg>
